Coordinates
version=1
nRows=19
nColumns=24
inDegrees=yes

Units are S.I. units (second, meters, Newtons, ...)
Angles are in degrees.

endheader
time	pelvis_tilt	pelvis_list	pelvis_rotation	pelvis_tx	pelvis_ty	pelvis_tz	hip_flexion_r	hip_adduction_r	hip_rotation_r	knee_angle_r	ankle_angle_r	subtalar_angle_r	mtp_angle_r	hip_flexion_l	hip_adduction_l	hip_rotation_l	knee_angle_l	ankle_angle_l	subtalar_angle_l	mtp_angle_l	lumbar_extension	lumbar_bending	lumbar_rotation
      1.05866667	     -4.42568859	     -5.36794105	     -3.36932754	      0.37689777	      0.99523099	      0.31514404	     20.08222644	     10.70256747	      0.01548781	    -22.14645105	     -0.24511252	    -20.49807704	     -5.24338519	     25.00733637	    -12.57366692	     -6.58802142	    -84.17644794	      3.71448261	     -0.63943288	      1.25567391	     -7.05696657	      7.28403915	      5.91249714
      1.06283333	     -4.17206939	     -5.30632102	     -3.60268353	      0.38180214	      0.99673579	      0.31581696	     19.27513538	     10.72049407	      0.33375569	    -21.76690222	     -0.14707533	    -20.46898870	     -5.23373171	     25.36773283	    -12.58261902	     -6.75332547	    -83.98073674	      3.86916986	     -0.43268887	      1.25237262	     -7.36728634	      7.14997535	      6.17971812
      1.06700000	     -3.93679925	     -5.24722584	     -3.83609095	      0.38670300	      0.99819560	      0.31647621	     18.48644346	     10.72969879	      0.63979083	    -21.38220669	     -0.05403526	    -20.38404365	     -5.22771361	     25.73531810	    -12.59815148	     -6.92616713	    -83.73238661	      4.01574433	     -0.25886353	      1.25171149	     -7.65325865	      7.01817693	      6.40953057
      1.07116667	     -3.66849410	     -5.17480782	     -4.07707332	      0.39160185	      0.99973282	      0.31716613	     17.65169842	     10.71964757	      0.96492639	    -20.97145616	     -0.01539121	    -20.32075122	     -5.22546707	     26.03991244	    -12.60715561	     -7.13020210	    -83.40608436	      4.12799742	     -0.13762995	      1.25102501	     -7.98065098	      6.86133017	      6.68066656
      1.07533333	     -3.41214155	     -5.10170972	     -4.30494902	      0.39646630	      1.00120815	      0.31781514	     16.83776518	     10.69452511	      1.26779577	    -20.57051993	      0.04011062	    -20.25307287	     -5.22696353	     26.35325394	    -12.61118383	     -7.32827138	    -83.03381273	      4.22593933	     -0.03596363	      1.25163530	     -8.29247029	      6.70216817	      6.91521389
      1.07950000	     -3.18334056	     -5.02562357	     -4.52549392	      0.40132553	      1.00262167	      0.31844443	     16.05510853	     10.65524550	      1.55330126	    -20.16807935	      0.09762144	    -20.15898361	     -5.23127600	     26.68502877	    -12.61105060	     -7.52414202	    -82.60726639	      4.30601199	      0.03506085	      1.25285240	     -8.57063171	      6.54072429	      7.13939317
      1.08366667	     -2.93665566	     -4.95863036	     -4.74133225	      0.40615816	      1.00402984	      0.31907231	     15.25319238	     10.61633332	      1.83456277	    -19.76185086	      0.15242948	    -20.07021101	     -5.23984634	     26.98367830	    -12.62423957	     -7.72712051	    -82.12952011	      4.37943531	      0.09314580	      1.25542171	     -8.87310722	      6.38632510	      7.36403203
      1.08783333	     -2.72825027	     -4.88297814	     -4.95262868	      0.41098354	      1.00534941	      0.31968564	     14.49994454	     10.55924890	      2.09477431	    -19.36562537	      0.21462421	    -19.94908625	     -5.25141927	     27.31210809	    -12.62997046	     -7.93309906	    -81.60159223	      4.42904219	      0.11355256	      1.25885822	     -9.12864241	      6.21677772	      7.56515033
      1.09200000	     -2.51405673	     -4.81473715	     -5.15598390	      0.41579109	      1.00665433	      0.32026460	     13.73893535	     10.49945526	      2.34751654	    -18.96102320	      0.27383909	    -19.83451905	     -5.26681730	     27.61949093	    -12.63621064	     -8.13208093	    -81.01760309	      4.47563616	      0.12719649	      1.26347325	     -9.38798974	      6.07026200	      7.76384646
      1.09616667	     -2.32720364	     -4.73556640	     -5.36001455	      0.42057710	      1.00787497	      0.32085300	     13.01967700	     10.42246024	      2.58481129	    -18.57642306	      0.34688940	    -19.68650381	     -5.28421674	     27.94186086	    -12.63751402	     -8.34235511	    -80.38523658	      4.50269150	      0.10999110	      1.26861428	     -9.61849294	      5.89883501	      7.94471741
      1.10033333	     -2.14169833	     -4.68401259	     -5.55134123	      0.42534445	      1.00904663	      0.32140853	     12.29847893	     10.36604711	      2.80858193	    -18.18058198	      0.41031190	    -19.55435571	     -5.30475600	     28.25772412	    -12.66466855	     -8.53778453	    -79.71469886	      4.53591195	      0.09247192	      1.27419229	     -9.84919270	      5.76874045	      8.13108031
      1.10450000	     -1.97673192	     -4.60325698	     -5.75216460	      0.43010611	      1.01016940	      0.32196030	     11.61181683	     10.27219386	      3.02072274	    -17.80389724	      0.49277658	    -19.38389620	     -5.32625719	     28.56986194	    -12.66501631	     -8.76131817	    -78.97855011	      4.54554953	      0.03453476	      1.27927961	    -10.05369583	      5.59892933	      8.29083100
      1.10866667	     -1.82752060	     -4.55418565	     -5.93466251	      0.43485772	      1.01121023	      0.32249318	     10.93945117	     10.20589819	      3.21358141	    -17.41974701	      0.56010070	    -19.21625908	     -5.35053092	     28.89337075	    -12.69474506	     -8.95551010	    -78.21048648	      4.55776051	     -0.02099795	      1.28403963	    -10.24219840	      5.46818540	      8.46447723
      1.11283333	     -1.69303435	     -4.48868396	     -6.12774019	      0.43960104	      1.01220256	      0.32302779	     10.29221539	     10.11892500	      3.40312691	    -17.04946956	      0.64216619	    -19.03834171	     -5.37475134	     29.20647874	    -12.71264784	     -9.17641607	    -77.38238160	      4.56229486	     -0.09412903	      1.28759168	    -10.41215886	      5.32304268	      8.60721860
      1.11700000	     -1.57074476	     -4.43821052	     -6.31122881	      0.44432319	      1.01312170	      0.32354585	      9.66152902	     10.04213508	      3.57778833	    -16.68245622	      0.72666616	    -18.84922212	     -5.39906710	     29.52268888	    -12.74455259	     -9.38588978	    -76.51610867	      4.56273140	     -0.18976388	      1.28980333	    -10.57217843	      5.18371284	      8.76958620
      1.12116667	     -1.61678976	     -4.46182841	     -6.41894098	      0.44906050	      1.01362805	      0.32388944	      9.21421236	     10.04604586	      3.67024657	    -16.32324092	      0.81655701	    -18.73731270	     -5.39916832	     30.06393933	    -12.81847895	     -9.45454068	    -75.67694983	      4.61789579	     -0.23298173	      1.28837976	    -10.52671184	      5.20088036	      8.79352921
      1.12533333	     -1.43082161	     -4.32279561	     -6.68510362	      0.45377130	      1.01468049	      0.32453060	      8.54010625	      9.86696390	      3.88437682	    -15.99654726	      0.92765783	    -18.43793100	     -5.42097401	     30.20606335	    -12.79691306	     -9.82405391	    -74.63421544	      4.54007727	     -0.43847385	      1.28240946	    -10.75875075	      4.93239331	      9.03371122
      1.12950000	     -1.48019543	     -4.37062568	     -6.79009163	      0.45848381	      1.01508829	      0.32487602	      8.09831550	      9.89308088	      3.96647260	    -15.63846425	      1.00996273	    -18.32410144	     -5.42127746	     30.71356752	    -12.89958111	     -9.89416058	    -73.70837394	      4.60207567	     -0.47761966	      1.28050650	    -10.71681575	      4.96828489	      9.06368808
      1.13366667	     -1.26312106	     -4.24052703	     -7.05796381	      0.46320328	      1.01613498	      0.32554697	      7.38794272	      9.71355210	      4.18467992	    -15.30158989	      1.09677995	    -18.04748465	     -5.44591732	     30.76803465	    -12.89318480	    -10.29066589	    -72.55831947	      4.52137240	     -0.69585672	      1.26944206	    -10.98260803	      4.69735582	      9.33457295
